<svg width="63" height="59" viewBox="0 0 63 59" fill="none" xmlns="http://www.w3.org/2000/svg">
<path fill-rule="evenodd" clip-rule="evenodd" d="M6.70887 9.64332C10.3987 14.947 15.2638 21.9444 17.5199 25.1932L21.6221 31.0994L19.8229 32.976C16.5117 36.4285 14.9336 41.3648 15.7284 45.7823C16.9425 52.5274 22.3087 57.7408 29.1419 58.8141C36.846 60.0241 44.5067 55.2099 46.6957 47.7825C48.172 42.7725 46.7606 36.9251 43.1087 32.9213L41.5399 31.2017L52.2699 15.8188C58.1714 7.3585 63 0.338172 63 0.217958C63 0.0981187 62.0785 0 60.9524 0H58.9051L48.6381 14.7365L38.3715 29.473L36.6848 28.8816C34.9996 28.2903 34.9988 28.2892 35.6289 27.3462C35.976 26.8268 40.2533 20.6723 45.1341 13.6692C50.015 6.66606 54.141 0.725776 54.3034 0.468122C54.5291 0.109728 53.9321 0 51.76 0H48.9218L39.1682 14.001C29.7232 27.5589 29.3658 28.0139 27.8733 28.3873C27.0256 28.5993 25.9728 28.8835 25.5335 29.0191C24.8297 29.2355 23.5273 27.5248 14.5907 14.6477L4.4466 0.0303348L2.22349 0.0149802L0 0L6.70887 9.64332ZM8.8621 0.193615C8.8621 0.33143 21.8368 19.0728 27.8315 27.5934C27.8576 27.6308 28.5326 26.7492 29.3312 25.6344L30.7837 23.6076L22.6066 11.8214L14.4295 0.0352034L11.6458 0.0176017C10.115 0.00786478 8.8621 0.0872573 8.8621 0.193615ZM35.9211 32.2353C43.5603 35.023 46.2115 44.7948 41.0085 50.9845C38.6295 53.8146 35.9783 55.1399 32.2789 55.3489C27.9678 55.5923 25.8234 54.8085 22.8424 51.9013C20.175 49.2992 19.1022 46.8729 19.1022 43.4417C19.1022 38.1879 22.8113 33.3711 28.0599 31.808C29.9824 31.2354 33.7413 31.4398 35.9211 32.2353ZM29.9874 36.6858C29.2763 38.119 28.4953 39.3664 28.2523 39.4574C28.0089 39.5488 26.6566 39.7436 25.2471 39.8907C23.8376 40.0379 22.6845 40.2604 22.6845 40.3847C22.6845 40.5094 23.6329 41.546 24.7921 42.6886L26.8996 44.7656L26.3809 47.6754C26.0952 49.2757 25.9789 50.537 26.1221 50.4774C26.2653 50.4183 27.5147 49.7898 28.8985 49.0805L31.4146 47.7911L34.2113 49.2243L37.0077 50.6579L36.7777 49.5367C36.6514 48.9199 36.4279 47.5354 36.282 46.4602L36.0159 44.5053L38.2098 42.343L40.4038 40.1802L37.8842 39.9286C36.4985 39.79 35.0944 39.5758 34.7642 39.4522C34.434 39.3286 33.5659 38.0692 32.8348 36.6532C32.1038 35.2376 31.4549 34.0793 31.3931 34.0793C31.3309 34.0793 30.6981 35.2522 29.9874 36.6858Z" fill="#B5222D"/>
</svg>
