<svg version="1.1" id="Layer_1" xmlns="http://www.w3.org/2000/svg" xmlns:xlink="http://www.w3.org/1999/xlink" x="0px" y="0px"
	 width="100%" viewBox="0 0 416 352" enable-background="new 0 0 416 352" xml:space="preserve">
<path fill="#B5222D" opacity="1.000000" stroke="none" 
	d="
M186.295898,239.031067 
	C186.294006,244.688904 186.079865,249.862534 186.355438,255.009979 
	C186.582733,259.255798 184.848709,260.548157 180.806793,260.325500 
	C151.513718,258.711639 125.093071,249.545425 102.587158,230.382843 
	C80.482948,211.562271 67.121712,187.687546 64.084839,158.785187 
	C62.650970,145.138809 62.345615,131.181580 68.596710,118.119591 
	C77.482498,99.552254 92.567863,89.023453 112.244705,85.049347 
	C132.090454,81.041138 150.292831,85.499763 166.154343,98.191391 
	C194.577301,120.934074 192.786667,164.066757 162.690475,184.795914 
	C151.559830,192.462280 139.323807,196.595428 125.705688,196.360504 
	C123.773254,196.327179 121.665680,195.856506 120.060661,197.454926 
	C119.465042,198.900146 120.451134,199.719269 121.233803,200.521179 
	C135.987823,215.638412 153.968170,224.501877 174.884247,226.522736 
	C188.638565,227.851639 185.990326,226.551239 186.295898,239.031067 
z"/>
<path fill="#B5222D" opacity="1.000000" stroke="none" 
	d="
M306.227020,88.571487 
	C324.352203,96.325409 336.696289,108.969002 341.209229,128.003815 
	C347.464355,154.386703 332.779083,181.085663 307.044891,191.337830 
	C298.603912,194.700592 289.945160,196.738373 280.789093,196.373352 
	C279.022827,196.302933 277.146881,195.903366 275.405701,196.929611 
	C275.063232,199.017471 276.834991,199.851059 277.906586,200.919815 
	C293.623871,216.595444 312.508240,225.407700 334.732269,226.781387 
	C342.309387,227.249741 342.320251,227.150146 342.326782,234.872238 
	C342.332581,241.703369 342.193726,248.538116 342.379486,255.364166 
	C342.477264,258.956512 341.330841,260.468292 337.538635,260.332642 
	C283.856018,258.412201 230.954498,223.534760 221.010147,164.102982 
	C218.333725,148.107559 217.951843,131.818253 225.600113,116.679520 
	C234.851074,98.368500 250.341736,88.491508 270.126251,84.720200 
	C282.412689,82.378166 294.286346,83.966522 306.227020,88.571487 
z"/>
</svg>