<svg version="1.1" id="Layer_1" xmlns="http://www.w3.org/2000/svg" xmlns:xlink="http://www.w3.org/1999/xlink" x="0px" y="0px"
	 width="100%" viewBox="0 0 1100 900" enable-background="new 0 0 800 600" xml:space="preserve">
<path fill="#FFFFFF" opacity="1.000000" stroke="none" 
	d="
M1.000000,117.000000 
	C1.000000,78.354477 1.000000,39.708950 1.000000,1.031712 
	C229.000000,1.031712 457.000000,1.031712 685.000000,1.031712 
	C685.000000,5.726440 685.000000,10.390556 684.676147,15.537121 
	C683.735596,16.158228 683.118774,16.296890 682.096436,16.492081 
	C655.181458,20.427591 628.667419,24.274240 602.163818,28.192011 
	C539.273071,37.488533 476.384735,46.801067 413.500336,56.140297 
	C349.309448,65.673553 285.127472,75.266693 220.936066,84.796585 
	C148.012650,95.622826 75.083138,106.408005 1.868702,117.150085 
	C1.387420,117.059418 1.193710,117.029709 1.000000,117.000000 
z"/>
<path fill="#45597C" opacity="1.000000" stroke="none" 
	d="
M682.502014,16.435551 
	C683.118774,16.296890 683.735596,16.158228 684.676147,16.009785 
	C685.000000,312.362701 685.000000,608.725403 684.731323,905.532837 
	C684.288818,905.933899 684.114990,905.890198 683.961487,905.388245 
	C683.987915,610.760925 683.993958,316.591888 683.997925,22.422852 
	C683.997925,21.257181 684.146484,20.050756 683.893982,18.938686 
	C683.691040,18.045021 682.984863,17.265644 682.502014,16.435551 
z"/>
<path fill="#8290A7" opacity="1.000000" stroke="none" 
	d="
M1.000000,117.457954 
	C1.193710,117.029709 1.387420,117.059418 1.834368,117.604027 
	C2.058317,119.950745 2.003394,121.782570 2.003367,123.614395 
	C1.999551,382.537292 1.999484,641.460205 2.004597,900.383118 
	C2.004633,902.214294 2.078158,904.045532 1.839141,905.917603 
	C1.373942,905.972351 1.186971,905.986145 1.000000,906.000000 
	C1.000000,643.305298 1.000000,380.610596 1.000000,117.457954 
z"/>
<path fill="#E0E3E8" opacity="1.000000" stroke="none" 
	d="
M1.000000,906.500000 
	C1.186971,905.986145 1.373942,905.972351 2.297258,905.972229 
	C228.839600,905.990601 454.645599,905.995605 680.451599,905.993713 
	C681.614746,905.993713 682.777954,905.897705 683.941101,905.846558 
	C684.114990,905.890198 684.288818,905.933899 684.731323,905.988770 
	C684.833374,906.333374 684.684082,906.943787 684.497192,906.955566 
	C683.169128,907.039062 681.833313,907.000000 680.500000,907.000000 
	C454.000000,907.000000 227.500000,907.000000 1.000000,906.500000 
z"/>
<path fill="#082352" opacity="1.000000" stroke="none" 
	d="
M683.961487,905.388245 
	C682.777954,905.897705 681.614746,905.993713 680.451599,905.993713 
	C454.645599,905.995605 228.839600,905.990601 2.575487,905.931274 
	C2.078158,904.045532 2.004633,902.214294 2.004597,900.383118 
	C1.999484,641.460205 1.999551,382.537292 2.003367,123.614395 
	C2.003394,121.782570 2.058317,119.950745 2.121941,117.664978 
	C75.083138,106.408005 148.012650,95.622826 220.936066,84.796585 
	C285.127472,75.266693 349.309448,65.673553 413.500336,56.140297 
	C476.384735,46.801067 539.273071,37.488533 602.163818,28.192011 
	C628.667419,24.274240 655.181458,20.427591 682.096436,16.492081 
	C682.984863,17.265644 683.691040,18.045021 683.893982,18.938686 
	C684.146484,20.050756 683.997925,21.257181 683.997925,22.422852 
	C683.993958,316.591888 683.987915,610.760925 683.961487,905.388245 
z"/>
</svg>