<svg width="38" height="25" viewBox="0 0 38 25" fill="none" xmlns="http://www.w3.org/2000/svg">
<path d="M29.3496 15.7636C27.7504 15.7636 26.1871 15.3014 24.8575 14.4353C23.5278 13.5693 22.4914 12.3383 21.8794 10.8981C21.2675 9.45787 21.1073 7.87311 21.4193 6.34419C21.7313 4.81527 22.5014 3.41087 23.6322 2.30859C24.763 1.2063 26.2037 0.45563 27.7722 0.151509C29.3407 -0.152612 30.9664 0.00347411 32.4439 0.600028C33.9213 1.19658 35.1841 2.20681 36.0726 3.50296C36.9611 4.79912 37.4353 6.32298 37.4353 7.88185L37.4722 9.00782C37.4722 11.0779 37.054 13.1278 36.2413 15.0403C35.4286 16.9528 34.2374 18.6906 32.7358 20.1544C31.2341 21.6181 29.4514 22.7793 27.4894 23.5715C25.5274 24.3637 23.4246 24.7714 21.3009 24.7714V20.2675C22.8185 20.2715 24.3218 19.9822 25.7239 19.4163C27.1261 18.8504 28.3992 18.0192 29.4698 16.9707C29.8858 16.5659 30.2697 16.1307 30.6179 15.6691C30.1984 15.7333 29.7743 15.7657 29.3496 15.7659V15.7636ZM8.55791 15.7636C6.95872 15.7636 5.39544 15.3014 4.06576 14.4353C2.73608 13.5693 1.69972 12.3383 1.08774 10.8981C0.475751 9.45787 0.315628 7.87311 0.627615 6.34419C0.939602 4.81527 1.70969 3.41087 2.84049 2.30859C3.97129 1.2063 5.41201 0.45563 6.98048 0.151509C8.54895 -0.152612 10.1747 0.00347411 11.6522 0.600028C13.1296 1.19658 14.3924 2.20681 15.2809 3.50296C16.1694 4.79912 16.6436 6.32298 16.6436 7.88185L16.6805 9.00782C16.6805 13.1886 14.9768 17.1981 11.9441 20.1544C8.91136 23.1106 4.79812 24.7714 0.509214 24.7714V20.2675C2.02677 20.2715 3.53009 19.9822 4.93223 19.4163C6.33436 18.8504 7.60751 18.0192 8.67805 16.9707C9.09412 16.5659 9.47795 16.1307 9.82621 15.6691C9.40666 15.7333 8.98261 15.7657 8.55791 15.7659V15.7636Z" fill="#B5222D"/>
</svg>
