<svg width="70" height="71" viewBox="0 0 70 71" fill="none" xmlns="http://www.w3.org/2000/svg">
<path d="M35 0.695068C15.6719 0.695068 0 16.3669 0 35.6951C0 55.0232 15.6719 70.6951 35 70.6951C54.3281 70.6951 70 55.0232 70 35.6951C70 16.3669 54.3281 0.695068 35 0.695068ZM54.0391 46.7263L35 57.7263L15.9609 46.7263V24.7419L24.5547 19.7732L24.5234 19.7576H24.5391L35 13.7419L45.4688 19.7576H45.4531L45.4297 19.7732L54.0312 24.7419V46.7263H54.0391ZM19.0547 37.6248L25.8984 41.5232V48.8982L33.4531 53.2654V36.6951L19.0547 28.3826V37.6248ZM34.9844 25.7654L27.6562 21.5544L20.5391 25.6638L35.0078 34.0232L49.4766 25.6716L42.3359 21.5466L34.9844 25.7654ZM36.5469 53.2654L44.1484 48.8748V41.5232L50.9453 37.656V28.3904L36.5469 36.7107V53.2654Z" fill="#B5222D"/>
</svg>
