<svg width="28" height="27" viewBox="0 0 28 27" fill="none" xmlns="http://www.w3.org/2000/svg">
<path fill-rule="evenodd" clip-rule="evenodd" d="M0.336762 2.25573C0.336762 1.65747 0.575029 1.08372 0.999147 0.66069C1.42327 0.237659 1.99849 3.0072e-06 2.59829 3.0072e-06H25.1422C25.4394 -0.000481215 25.7338 0.0575166 26.0086 0.170676C26.2833 0.283835 26.533 0.449933 26.7433 0.659461C26.9536 0.868989 27.1204 1.11783 27.2341 1.39174C27.3479 1.66565 27.4063 1.95925 27.4062 2.25573V24.7418C27.4065 25.0384 27.3482 25.332 27.2346 25.6061C27.121 25.8801 26.9544 26.1291 26.7442 26.3389C26.5341 26.5486 26.2845 26.715 26.0098 26.8284C25.7351 26.9419 25.4407 27.0002 25.1434 27H2.59829C2.3012 27 2.00702 26.9416 1.73256 26.8282C1.45809 26.7147 1.20873 26.5485 0.998712 26.3389C0.788694 26.1293 0.622137 25.8805 0.508557 25.6067C0.394977 25.3328 0.3366 25.0394 0.336762 24.743V2.25573ZM11.0513 10.2944H14.7168V12.1304C15.2459 11.0749 16.5993 10.125 18.6332 10.125C22.5324 10.125 23.4565 12.2273 23.4565 16.0846V23.2298H19.5105V16.9634C19.5105 14.7665 18.9814 13.527 17.6378 13.527C15.7737 13.527 14.9985 14.8635 14.9985 16.9634V23.2298H11.0513V10.2944ZM4.28397 23.0617H8.23119V10.125H4.28397V23.0605V23.0617ZM8.79595 5.90564C8.80339 6.24274 8.74326 6.57792 8.61907 6.89152C8.49488 7.20513 8.30914 7.49083 8.07275 7.73186C7.83636 7.97289 7.55408 8.1644 7.24248 8.29515C6.93088 8.42589 6.59624 8.49324 6.2582 8.49324C5.92015 8.49324 5.58551 8.42589 5.27391 8.29515C4.96231 8.1644 4.68003 7.97289 4.44364 7.73186C4.20726 7.49083 4.02152 7.20513 3.89732 6.89152C3.77313 6.57792 3.713 6.24274 3.72044 5.90564C3.73505 5.24396 4.00883 4.61429 4.48316 4.15148C4.95749 3.68867 5.59466 3.42952 6.2582 3.42952C6.92174 3.42952 7.5589 3.68867 8.03323 4.15148C8.50756 4.61429 8.78134 5.24396 8.79595 5.90564V5.90564Z" fill="white"/>
</svg>
