<svg version="1.1" id="Layer_1" xmlns="http://www.w3.org/2000/svg" xmlns:xlink="http://www.w3.org/1999/xlink" x="0px" y="0px"
	 width="100%" viewBox="0 0 300 252" enable-background="new 0 0 300 252" xml:space="preserve">
<path fill="#FFFFFF" opacity="1.000000" stroke="none" 
	d="
M149.000000,253.000000 
	C99.333336,253.000000 50.166679,253.000000 1.000013,253.000000 
	C1.000009,169.000015 1.000009,85.000031 1.000004,1.000036 
	C100.999969,1.000024 200.999939,1.000024 300.999939,1.000012 
	C300.999939,84.999962 300.999939,168.999924 300.999969,252.999939 
	C250.500000,253.000000 200.000000,253.000000 149.000000,253.000000 
M212.519440,172.021835 
	C219.046005,166.144424 226.366852,160.931244 231.945221,154.260864 
	C246.704590,136.612152 252.004654,115.845596 248.857956,93.146561 
	C245.660309,70.080093 220.413330,54.676937 195.299988,60.055267 
	C177.867477,63.788662 164.059265,78.364891 162.121307,95.079346 
	C160.188660,111.747978 169.366470,127.825668 185.343719,135.707703 
	C193.552643,139.757401 202.317154,140.869705 212.526443,139.955505 
	C198.738419,156.051224 181.987122,162.999741 162.463074,163.784409 
	C162.463074,171.680588 162.463074,179.228851 162.463074,186.988358 
	C180.545105,186.526520 196.978363,182.038452 212.519440,172.021835 
M51.487747,111.859215 
	C60.012840,133.340302 76.931244,141.057053 99.718750,140.302399 
	C86.196045,156.180695 69.339851,162.911148 50.089989,163.834900 
	C50.089989,171.917542 50.089989,179.304367 50.089989,187.149689 
	C54.138134,186.771194 57.760822,186.508423 61.364464,186.083969 
	C104.598328,180.991592 139.416214,145.010162 137.100479,100.795685 
	C136.131409,82.293457 126.035408,67.353897 108.557930,61.578217 
	C91.175224,55.833851 75.134308,58.788891 61.783279,71.396820 
	C50.346008,82.197502 46.866943,95.782913 51.487747,111.859215 
z"/>
<path fill="#B5222D" opacity="1.000000" stroke="none" 
	d="
M212.214508,172.218689 
	C196.978363,182.038452 180.545105,186.526520 162.463074,186.988358 
	C162.463074,179.228851 162.463074,171.680588 162.463074,163.784409 
	C181.987122,162.999741 198.738419,156.051224 212.526443,139.955505 
	C202.317154,140.869705 193.552643,139.757401 185.343719,135.707703 
	C169.366470,127.825668 160.188660,111.747978 162.121307,95.079346 
	C164.059265,78.364891 177.867477,63.788662 195.299988,60.055267 
	C220.413330,54.676937 245.660309,70.080093 248.857956,93.146561 
	C252.004654,115.845596 246.704590,136.612152 231.945221,154.260864 
	C226.366852,160.931244 219.046005,166.144424 212.214508,172.218689 
z"/>
<path fill="#B5222D" opacity="1.000000" stroke="none" 
	d="
M51.329296,111.489685 
	C46.866943,95.782913 50.346008,82.197502 61.783279,71.396820 
	C75.134308,58.788891 91.175224,55.833851 108.557930,61.578217 
	C126.035408,67.353897 136.131409,82.293457 137.100479,100.795685 
	C139.416214,145.010162 104.598328,180.991592 61.364464,186.083969 
	C57.760822,186.508423 54.138134,186.771194 50.089989,187.149689 
	C50.089989,179.304367 50.089989,171.917542 50.089989,163.834900 
	C69.339851,162.911148 86.196045,156.180695 99.718750,140.302399 
	C76.931244,141.057053 60.012840,133.340302 51.329296,111.489685 
z"/>
</svg>