<svg width="29" height="27" viewBox="0 0 29 27" fill="none" xmlns="http://www.w3.org/2000/svg">
<path d="M28.2905 7.00546V21.8077C28.2905 23.1848 27.8284 24.5055 27.0058 25.4792C26.1832 26.453 25.0675 27 23.9042 27H4.60475C3.44145 27 2.32579 26.453 1.50321 25.4792C0.680627 24.5055 0.218506 23.1848 0.218506 21.8077V7.00546L13.8089 16.4721C13.9439 16.5663 14.0978 16.6161 14.2545 16.6161C14.4112 16.6161 14.5651 16.5663 14.7001 16.4721L28.2905 7.00546ZM23.9042 6.42863e-08C24.9835 -0.000200872 26.025 0.470644 26.8294 1.32246C27.6337 2.17427 28.1446 3.34726 28.2642 4.617L14.2545 14.3723L0.244824 4.617C0.364407 3.34726 0.875257 2.17427 1.67964 1.32246C2.48403 0.470644 3.52548 -0.000200872 4.60475 6.42863e-08H23.9042Z" fill="white"/>
</svg>
