<svg width="27" height="26" viewBox="0 0 27 26" fill="none" xmlns="http://www.w3.org/2000/svg">
<path d="M13.1353 8.66482C10.7421 8.66482 8.78908 10.6129 8.78908 13C8.78908 15.3871 10.7421 17.3352 13.1353 17.3352C15.5285 17.3352 17.4816 15.3871 17.4816 13C17.4816 10.6129 15.5285 8.66482 13.1353 8.66482ZM26.1708 13C26.1708 11.2048 26.1871 9.42584 26.086 7.63387C25.9849 5.55247 25.5089 3.70522 23.983 2.18319C22.4538 0.657911 20.6051 0.186343 18.5184 0.0855244C16.7186 -0.0152937 14.9351 0.000967347 13.1386 0.000967347C11.3388 0.000967347 9.5553 -0.0152937 7.75876 0.0855244C5.67205 0.186343 3.82008 0.661163 2.29417 2.18319C0.764998 3.70847 0.292226 5.55247 0.19115 7.63387C0.090075 9.42909 0.106378 11.208 0.106378 13C0.106378 14.792 0.090075 16.5742 0.19115 18.3661C0.292226 20.4475 0.768258 22.2948 2.29417 23.8168C3.82334 25.3421 5.67205 25.8137 7.75876 25.9145C9.55856 26.0153 11.342 25.999 13.1386 25.999C14.9384 25.999 16.7219 26.0153 18.5184 25.9145C20.6051 25.8137 22.4571 25.3388 23.983 23.8168C25.5122 22.2915 25.9849 20.4475 26.086 18.3661C26.1904 16.5742 26.1708 14.7952 26.1708 13V13ZM13.1353 19.6703C9.43466 19.6703 6.44804 16.6912 6.44804 13C6.44804 9.30876 9.43466 6.32974 13.1353 6.32974C16.836 6.32974 19.8226 9.30876 19.8226 13C19.8226 16.6912 16.836 19.6703 13.1353 19.6703ZM20.0965 7.61436C19.2325 7.61436 18.5347 6.91839 18.5347 6.05656C18.5347 5.19473 19.2325 4.49876 20.0965 4.49876C20.9605 4.49876 21.6583 5.19473 21.6583 6.05656C21.6585 6.2612 21.6183 6.46389 21.5399 6.65301C21.4615 6.84212 21.3465 7.01396 21.2014 7.15866C21.0563 7.30337 20.8841 7.41811 20.6945 7.4963C20.5049 7.5745 20.3017 7.61462 20.0965 7.61436V7.61436Z" fill="white"/>
</svg>
