<svg width="169" height="51" viewBox="0 0 169 51" fill="none" xmlns="http://www.w3.org/2000/svg">
<g clip-path="url(#clip0_536_465)">
<path d="M36.7824 28.2192C36.642 29.1533 36.3403 30.0405 35.9724 30.9033C35.0817 32.9938 33.7764 34.7924 32.0725 36.2844C30.0976 38.0133 27.8322 39.1664 25.2441 39.6432C24.1969 39.8362 23.1417 39.9968 22.0735 40C19.429 40.0081 16.9441 39.3464 14.611 38.1122C11.484 36.4563 9.00079 34.1096 7.22269 31.0281C5.98512 28.8825 5.23322 26.573 4.95731 24.1079C4.9202 23.7803 4.92343 23.7803 5.24452 23.7803C6.94033 23.7803 8.63452 23.7835 10.3287 23.7754C10.5433 23.7754 10.6208 23.8062 10.6272 24.0527C10.766 29.888 14.4706 34.9318 20.026 36.6396C24.5229 38.0214 28.697 37.2121 32.4162 34.2912C34.3669 32.7586 35.7417 30.7832 36.6146 28.4527C36.6517 28.3538 36.6904 28.2565 36.7291 28.1592C36.7791 28.151 36.8082 28.1624 36.7824 28.2208V28.2192Z" fill="white"/>
<path d="M11.0806 19.8197C11.2258 18.8694 11.5259 17.9644 11.8971 17.0837C12.7813 14.9884 14.0914 13.193 15.7937 11.7042C17.7945 9.95424 20.1002 8.80275 22.7238 8.33567C23.921 8.12159 25.1231 7.9659 26.3429 8.00644C28.3646 8.07456 30.2912 8.54489 32.1435 9.34931C34.3201 10.2932 36.2112 11.6474 37.8763 13.3341C39.719 15.1992 41.0824 17.3676 41.9811 19.8343C42.4781 21.1999 42.7782 22.6109 42.9363 24.0543C42.9525 24.1938 42.9137 24.2181 42.7911 24.2181C41.0001 24.2165 39.2091 24.2132 37.4165 24.2197C37.239 24.2197 37.2471 24.1289 37.2454 24.0073C37.2132 21.6118 36.5968 19.377 35.3609 17.3319C33.2294 13.8044 30.1314 11.6296 26.088 10.9273C22.3172 10.2721 18.8562 11.1333 15.7824 13.4379C13.6203 15.0597 12.0971 17.1746 11.1839 19.7289C11.1661 19.7792 11.1468 19.8278 11.1274 19.8765C11.0806 19.8862 11.0516 19.8765 11.0758 19.8197H11.0806Z" fill="white"/>
<path d="M23.9404 14.0574C18.477 14.0574 14.0479 18.5093 14.0479 24.0007C14.0479 29.4922 18.477 33.944 23.9404 33.944C29.4037 33.944 33.8329 29.4922 33.8329 24.0007C33.8329 18.5093 29.4037 14.0574 23.9404 14.0574ZM18.8884 23.9683C18.8965 23.4866 18.9562 23.0422 19.0595 22.6303C16.5359 20.9922 19.2692 17.481 21.5185 19.5115C21.5265 19.5213 21.533 19.5294 21.5411 19.5391C24.4874 18.0908 28.8406 19.5667 28.9149 23.9683C28.8019 30.5918 18.9998 30.5918 18.8884 23.9683Z" fill="white"/>
</g>
<path d="M61.5891 25.186C61.9311 25.15 62.2551 25.06 62.5611 24.916C63.7491 24.376 64.5591 23.188 64.5591 21.82C64.5591 20.884 64.1811 20.02 63.5691 19.408C62.9571 18.796 62.1111 18.4 61.1571 18.4H53.2191V31.018H55.4511V25.222H57.7011C58.5111 25.222 59.2311 25.654 59.6091 26.302L59.6631 26.392L60.8691 28.75L62.0211 31H64.5411L63.4071 28.75L61.5891 25.186ZM55.4511 22.972V20.65H61.1571C61.5531 20.65 61.8231 20.848 61.9671 20.974C62.0931 21.118 62.3091 21.406 62.3091 21.82C62.3091 22.27 62.0571 22.684 61.6251 22.864C61.4811 22.936 61.3191 22.972 61.1571 22.972H55.4511ZM72.2175 18.418C68.7435 18.418 65.9355 21.226 65.9355 24.718C65.9355 28.192 68.7435 31 72.2175 31C75.7095 31 78.5175 28.192 78.5175 24.718C78.5175 21.226 75.7095 18.418 72.2175 18.418ZM72.2175 28.768C69.9855 28.768 68.1675 26.95 68.1675 24.7C68.1675 22.468 69.9855 20.65 72.2175 20.65C74.4495 20.65 76.2675 22.468 76.2675 24.7C76.2675 26.95 74.4495 28.768 72.2175 28.768ZM90.7027 23.656C91.0447 23.116 91.2427 22.486 91.2427 21.82C91.2427 19.93 89.7127 18.418 87.8407 18.418H79.9027V31V31.018H88.4707C90.6847 31.018 92.4847 29.218 92.4847 26.986C92.4847 25.6 91.7827 24.376 90.7027 23.656ZM82.1347 20.65H87.8407C88.4707 20.65 88.9927 21.172 88.9927 21.82C88.9927 22.45 88.4707 22.972 87.8407 22.972H82.1347V20.65ZM88.4707 28.768H82.1347V25.222H88.4707C89.4427 25.222 90.2527 26.014 90.2527 26.986C90.2527 27.976 89.4427 28.768 88.4707 28.768ZM99.7097 18.418C96.2357 18.418 93.4277 21.226 93.4277 24.718C93.4277 28.192 96.2357 31 99.7097 31C103.202 31 106.01 28.192 106.01 24.718C106.01 21.226 103.202 18.418 99.7097 18.418ZM99.7097 28.768C97.4777 28.768 95.6597 26.95 95.6597 24.7C95.6597 22.468 97.4777 20.65 99.7097 20.65C101.942 20.65 103.76 22.468 103.76 24.7C103.76 26.95 101.942 28.768 99.7097 28.768ZM111.175 28.75C110.365 28.66 109.735 28.012 109.627 27.22V18.4H107.395V26.986C107.395 27.634 107.539 28.228 107.809 28.75C108.187 29.56 108.835 30.208 109.627 30.586C110.167 30.856 110.761 31 111.391 31H117.781V28.75H111.175ZM130.539 28.75L125.265 18.4L119.991 28.75L118.857 31.018H121.377L122.529 28.75L125.265 23.368L128.019 28.75L129.171 31.018H131.691L130.539 28.75ZM143.595 23.656C143.937 23.116 144.135 22.486 144.135 21.82C144.135 19.93 142.605 18.418 140.733 18.418H132.795V31V31.018H141.363C143.577 31.018 145.377 29.218 145.377 26.986C145.377 25.6 144.675 24.376 143.595 23.656ZM135.027 20.65H140.733C141.363 20.65 141.885 21.172 141.885 21.82C141.885 22.45 141.363 22.972 140.733 22.972H135.027V20.65ZM141.363 28.768H135.027V25.222H141.363C142.335 25.222 143.145 26.014 143.145 26.986C143.145 27.976 142.335 28.768 141.363 28.768ZM158.65 21.874V21.82C158.65 19.93 157.138 18.4 155.248 18.4H150.136C148.264 18.4 146.752 19.93 146.752 21.82V21.874C146.752 22.594 146.968 23.26 147.346 23.818C147.472 23.998 147.634 24.178 147.796 24.34C148.39 24.934 149.218 25.294 150.136 25.294H154.672C155.626 25.294 156.418 26.068 156.418 27.022C156.418 27.976 155.626 28.75 154.672 28.75H150.73C149.758 28.75 148.984 27.976 148.984 27.022H146.752C146.752 29.218 148.516 31 150.73 31H154.672C156.868 31 158.65 29.218 158.65 27.022C158.65 26.068 158.326 25.204 157.75 24.502C157.714 24.448 157.66 24.394 157.606 24.34C156.886 23.53 155.842 23.026 154.672 23.026H150.136C149.506 23.026 148.984 22.522 148.984 21.874V21.82C148.984 21.172 149.506 20.668 150.136 20.668H155.248C155.896 20.668 156.418 21.172 156.418 21.82V21.874H158.65Z" fill="white"/>
<defs>
<clipPath id="clip0_536_465">
<rect width="38" height="32" fill="white" transform="translate(4.94116 8)"/>
</clipPath>
</defs>
</svg>
