<svg width="36" height="24" viewBox="0 0 36 24" fill="none" xmlns="http://www.w3.org/2000/svg">
<path d="M7.90301 15.133C9.45898 15.133 10.98 14.6892 12.2738 13.8578C13.5675 13.0264 14.5759 11.8446 15.1713 10.462C15.7667 9.07943 15.9225 7.55806 15.619 6.0903C15.3154 4.62254 14.5662 3.27431 13.4659 2.21612C12.3657 1.15792 10.9639 0.437279 9.43781 0.145323C7.91174 -0.146632 6.32992 0.00320982 4.89239 0.575902C3.45486 1.14859 2.22618 2.11841 1.36173 3.36272C0.497281 4.60703 0.035881 6.06994 0.035881 7.56645L-8.39233e-05 8.64738C-8.39233e-05 10.6347 0.406896 12.6025 1.19762 14.4385C1.98834 16.2746 3.14731 17.9428 4.60838 19.3481C6.06944 20.7533 7.80397 21.868 9.71294 22.6285C11.6219 23.389 13.6679 23.7804 15.7342 23.7804V19.4567C14.2576 19.4605 12.795 19.1828 11.4307 18.6395C10.0665 18.0963 8.82773 17.2983 7.78613 16.2917C7.3813 15.9031 7.00784 15.4854 6.669 15.0422C7.07721 15.1039 7.48979 15.1349 7.90301 15.1351V15.133ZM28.1328 15.133C29.6888 15.133 31.2098 14.6892 32.5035 13.8578C33.7973 13.0264 34.8056 11.8446 35.4011 10.462C35.9965 9.07943 36.1523 7.55806 35.8487 6.0903C35.5452 4.62254 34.7959 3.27431 33.6957 2.21612C32.5954 1.15792 31.1937 0.437279 29.6676 0.145323C28.1415 -0.146632 26.5597 0.00320982 25.1222 0.575902C23.6846 1.14859 22.456 2.11841 21.5915 3.36272C20.727 4.60703 20.2656 6.06994 20.2656 7.56645L20.2297 8.64738C20.2297 12.6609 21.8874 16.5101 24.8381 19.3481C27.7889 22.186 31.791 23.7804 35.9639 23.7804V19.4567C34.4874 19.4605 33.0247 19.1828 31.6605 18.6395C30.2962 18.0963 29.0575 17.2983 28.0159 16.2917C27.6111 15.9031 27.2376 15.4854 26.8988 15.0422C27.307 15.1039 27.7196 15.1349 28.1328 15.1351V15.133Z" fill="#B5222D"/>
</svg>
